<?xml version="1.0" encoding="utf-8"?>
<!-- Generator: Adobe Illustrator 16.0.0, SVG Export Plug-In . SVG Version: 6.00 Build 0)  -->
<!DOCTYPE svg PUBLIC "-//W3C//DTD SVG 1.1//EN" "http://www.w3.org/Graphics/SVG/1.1/DTD/svg11.dtd">
<svg version="1.1" xmlns="http://www.w3.org/2000/svg" xmlns:xlink="http://www.w3.org/1999/xlink" x="0px" y="0px" width="300px"
	 height="300px" viewBox="0 0 300 300" enable-background="new 0 0 300 300" xml:space="preserve">
<g id="Layer_1">
	<g>
		<path fill-rule="evenodd" clip-rule="evenodd" fill="#62391D" d="M198.4,168.472c-2.176,3.43-7.315,15.572-8.61,18.917
			c-1.293,3.343-1.838,26.114,11.379,44.422c13.218,18.31,42.122,16.272,42.65,17.301c1.335,2.587,2.68-0.079,5.369,2.785
			c0,0,12.036-11.035,15.877-29.326c3.843-18.29-1.215-31.3-1.215-31.3L198.4,168.472z"/>
		<path fill-rule="evenodd" clip-rule="evenodd" fill="#EF9196" d="M244.054,248.156c-0.834,0.304-2.69,3.472-2.081,5.334
			c0.607,1.86,8.159,3.847,9.145,2.937C257.478,250.56,247.141,247.034,244.054,248.156z"/>
		<path fill-rule="evenodd" clip-rule="evenodd" fill="#F4B67E" d="M245.868,277.499c0.817-0.615,18.578-14.031,18.578-14.031
			c8.139,2.686,10.486,25.768,11.313,36.532h-19.444L245.868,277.499z"/>
		<path fill-rule="evenodd" clip-rule="evenodd" fill="#F4B67E" d="M229.204,248.246h-8.582v5.417
			c0.008,6.424-17.066,7.009-22.856,8.857c2.098,11.295-1.534,16.269,29.831,35.199h2.214h2.212
			c15.206-5.527,26.752-12.306,29.654-35.065c-5.943-1.898-23.902-2.458-23.893-8.991v-5.417H229.204z"/>
		<path fill-rule="evenodd" clip-rule="evenodd" fill="#F4B67E" d="M207.077,281.297c-0.818-0.615-12.65-17.829-12.65-17.829
			c-8.14,2.686-10.487,25.768-11.315,36.532h19.443L207.077,281.297z"/>
		<path fill-rule="evenodd" clip-rule="evenodd" fill="#9756A2" d="M197.778,262.516l-0.013,0.005l-0.098,0.022l-0.096,0.024
			l-0.097,0.021l-0.095,0.023l-0.093,0.021l-0.094,0.021l-0.185,0.046l-0.089,0.021l-0.091,0.023l-0.088,0.022h-0.006l-0.081,0.021
			l-0.088,0.023l-0.085,0.022l-0.084,0.022l-0.086,0.022l-0.082,0.021l-0.223,0.061l-0.02,0.006l-0.08,0.021l-0.076,0.023
			l-0.078,0.02l-0.076,0.023l-0.074,0.021l-0.073,0.022l-0.061,0.017l-0.012,0.004l-0.071,0.023l-0.07,0.02l-0.067,0.021h-0.002
			l-0.067,0.023l-0.134,0.043l-0.049,0.017l-0.016,0.004l-0.187,0.065l-0.031,0.009l-0.028,0.011l-0.115,0.044l-0.056,0.021
			l-0.05,0.018l-0.143,0.057l-0.043,0.019c-0.054,0.023-0.105,0.046-0.154,0.068l-0.007,0.004l-0.005,0.001
			c-0.055,0.024-0.102,0.049-0.149,0.073l-0.01,0.006c-0.044,0.02-0.084,0.044-0.121,0.064l-0.016,0.008l-0.008,0.006
			c-0.038,0.023-0.071,0.046-0.105,0.067l-0.007,0.006l-0.003,0.003c-0.035,0.025-0.067,0.049-0.096,0.072
			c0.82,1.795,1.913,7.926,3.057,15.497c-1.156,7.729-5.681,13.278-2.426,20.614h5.317h29.607h0.231h0.232h29.605h5.321
			c3.253-7.336-1.271-12.885-2.43-20.614c1.145-7.571,2.237-13.702,3.057-15.497c-0.027-0.023-0.059-0.047-0.094-0.072l-0.003-0.003
			l-0.008-0.006c-0.031-0.021-0.067-0.044-0.104-0.067l-0.01-0.006l-0.015-0.008c-0.036-0.021-0.077-0.045-0.122-0.064l-0.008-0.006
			c-0.046-0.024-0.098-0.049-0.148-0.073l-0.007-0.001l-0.006-0.004l-0.154-0.068l-0.043-0.019l-0.142-0.057l-0.051-0.018
			l-0.055-0.021l-0.116-0.044l-0.028-0.011l-0.032-0.009l-0.186-0.065l-0.017-0.004l-0.049-0.017l-0.131-0.043l-0.07-0.023h-0.002
			l-0.067-0.021l-0.069-0.02l-0.07-0.023l-0.013-0.004l-0.061-0.017l-0.074-0.022l-0.074-0.021l-0.076-0.023l-0.076-0.02
			l-0.078-0.023l-0.077-0.021l-0.021-0.006l-0.224-0.061l-0.083-0.021l-0.084-0.022l-0.084-0.022l-0.086-0.022l-0.087-0.023
			l-0.083-0.021h-0.004l-0.089-0.022l-0.09-0.023l-0.091-0.021l-0.184-0.046l-0.094-0.021l-0.094-0.021l-0.093-0.023l-0.098-0.021
			l-0.095-0.024l-0.098-0.022l-0.014-0.002c-4.162,13.795-16.76,23.823-31.657,23.823S201.941,276.312,197.778,262.516z"/>
		<g>
			<path fill-rule="evenodd" clip-rule="evenodd" fill="#F5C084" d="M203.98,205.944c1.424,6.393-1.403,11.718-6.246,12.866
				c-4.841,1.145-9.858-2.321-11.28-8.715c-1.423-6.394,1.348-12.509,6.189-13.654C197.482,195.294,202.559,199.548,203.98,205.944z
				"/>
			<path fill-rule="evenodd" clip-rule="evenodd" fill="#F5C084" d="M256.315,205.944c-1.423,6.393,1.404,11.718,6.246,12.866
				c4.841,1.145,9.859-2.321,11.279-8.715c1.424-6.394-1.347-12.509-6.189-13.654C262.812,195.294,257.736,199.548,256.315,205.944z
				"/>
		</g>
		<path fill-rule="evenodd" clip-rule="evenodd" fill="#F8CA97" d="M230.147,153.917l-0.109,0.005c-2.564-0.102-5.047-0.2-5.047-0.2
			l0.011,0.399c-0.329,0.014-0.53,0.023-0.53,0.023c-10.243,0.406-19.887,5.924-26.071,14.327
			c-6.19,8.411-7.012,19.004-6.526,29.149c1.256,26.065,15.856,55.333,38.273,55.55c22.418-0.217,37.019-29.484,38.273-55.55
			c0.487-10.146-0.336-20.738-6.523-29.149c-6.186-8.403-15.83-13.921-26.074-14.327c0,0-0.201-0.01-0.529-0.023l0.01-0.399
			c0,0-2.481,0.099-5.047,0.2L230.147,153.917z"/>
		<path fill-rule="evenodd" clip-rule="evenodd" fill="#62391D" d="M246.079,164.017c-0.308,1.431-0.034,9.105,8.797,20.868
			c8.831,11.762,9.514,12.788,9.514,12.788s0.408,19.845,1.533,17.491c1.125-2.352,2.732-19.438,2.732-19.438
			s2.077-8.897-0.174-18.104c-2.25-9.206-5.091-12.678-8.992-14.229C255.589,161.841,246.079,164.017,246.079,164.017z"/>
		<path fill-rule="evenodd" clip-rule="evenodd" fill="#62391D" d="M196.875,188.874c-1.534,1.738-6.521,1.926-6.521,1.926
			c0.218,1.608,2.366,25.828,4.379,24.113L196.875,188.874z"/>
		<path fill-rule="evenodd" clip-rule="evenodd" fill="#62391D" d="M264.39,197.673c0.401-6.723,3.85-22.069,2.16-26.258
			c-4.873-12.078-13.799-16.966-28.784-18.467c-4.603-0.457-8.438-0.05-8.438-0.05C237.925,167.088,245.182,185.942,264.39,197.673z
			"/>
		<path fill-rule="evenodd" clip-rule="evenodd" fill="#62391D" d="M249.941,167.67c-3.039,18.952-43.026,12.843-56.184,35.64
			c-14.66-22.167,7.788-67.572,46.86-50.022L249.941,167.67z"/>
		<g>
			<path fill-rule="evenodd" clip-rule="evenodd" fill="#3E3C3B" d="M214.308,213.963c1.635,0,2.969-1.334,2.969-2.968
				c0-1.635-1.334-2.964-2.969-2.964c-1.634,0-2.965,1.329-2.965,2.964C211.343,212.629,212.674,213.963,214.308,213.963z"/>
			<path fill-rule="evenodd" clip-rule="evenodd" fill="#3E3C3B" d="M247.76,213.963c1.634,0,2.967-1.334,2.967-2.968
				c0-1.635-1.333-2.964-2.967-2.964c-1.635,0-2.966,1.329-2.966,2.964C244.794,212.629,246.125,213.963,247.76,213.963z"/>
		</g>
		<path fill-rule="evenodd" clip-rule="evenodd" fill="#E5B27E" d="M225.357,226.128c-0.037-0.011-0.042-0.041-0.011-0.09
			c0-0.15,0.085-0.295,0.24-0.433c1.219-2.345,3.617-9.188,4.714-16.713c1.205,0.074-1.193,12.808-2.225,15.849
			c1.044-0.182,2.315-0.29,3.687-0.29c3.547,0,6.42,0.71,6.42,1.587c0,0.875-2.873,1.584-6.42,1.584
			C228.341,227.622,225.545,226.962,225.357,226.128z"/>
		<g>
			<path fill-rule="evenodd" clip-rule="evenodd" fill="#402515" d="M238.024,203.85c-1.758,0.729,1.164-4.032,9.802-4.222
				c10.069-0.22,13.134,4.624,9.167,3.233C248.433,199.86,240.811,202.694,238.024,203.85z"/>
			<path fill-rule="evenodd" clip-rule="evenodd" fill="#402515" d="M224.044,203.85c1.757,0.729-1.162-4.032-9.801-4.222
				c-10.071-0.22-13.135,4.624-9.167,3.233C213.637,199.86,221.257,202.694,224.044,203.85z"/>
		</g>
		<path fill-rule="evenodd" clip-rule="evenodd" fill="#D6825C" d="M241.29,234.606c-1.952,6.27-19.658,6.27-21.612,0
			C225.547,239.076,235.422,239.076,241.29,234.606z"/>
		<path fill-rule="evenodd" clip-rule="evenodd" fill="#62391D" d="M235.097,266.063c-4.6,11.615-1.141,15.271-1.141,15.271
			l0.532-6.533c0,0,1.597,8.052,1.75,13.219c0.151,5.166-1.824,11.979-1.824,11.979s8.204-4.457,12.231-11.447
			c4.026-6.989,2.659-20.209,2.659-20.209s1.669,4.407,1.669,3.951s0.92-6.467,0.532-11.168c-0.187-2.272,0.255-5.056-1.209-7.161
			C243.527,244.216,236.725,261.955,235.097,266.063z"/>
	</g>
	<g>
		<path fill-rule="evenodd" clip-rule="evenodd" fill="#A02126" d="M48.905,287.307c-0.462-0.347-10.774-5.202-10.774-5.202
			c-4.591,1.515-5.62,11.823-6.088,17.896h10.969L48.905,287.307z"/>
		<path fill-rule="evenodd" clip-rule="evenodd" fill="#A02126" d="M67.182,287.307c0.462-0.347,10.774-5.202,10.774-5.202
			c4.591,1.515,5.62,11.823,6.088,17.896H73.075L67.182,287.307z"/>
		<path fill-rule="evenodd" clip-rule="evenodd" fill="#F4B67E" d="M58.044,270.806h-4.841v3.056
			c0.003,1.899-0.313,1.505-2.088,2.491c0,0-1.711,1.403-2.232,1.57c2.151,6.925,3.707,15.83,7.912,22.077h1.249h1.248
			c4.205-6.247,5.761-15.152,7.912-22.077c-0.521-0.167-2.232-1.57-2.232-1.57c-1.773-0.986-2.09-0.592-2.087-2.491v-3.056H58.044z"
			/>
		<path fill-rule="evenodd" clip-rule="evenodd" fill="#841C22" d="M55.044,283.179c-4.26-1.563-4.794-6.131-3.931-6.801
			c-2.58,1.176-11.988,4.862-13.042,5.774c0.854,1.871,2.151,9.571,3.272,17.848h16.7h16.7c1.121-8.276,2.417-15.977,3.272-17.848
			c-1.054-0.912-10.463-4.599-13.043-5.774c0.863,0.67,0.33,5.237-3.931,6.801v0.001l-2.999,5.009L55.044,283.179L55.044,283.179z"
			/>
		<path fill-rule="evenodd" clip-rule="evenodd" fill="#F5C084" d="M70.995,248.695c-0.692,3.606,1.642,6.61,5.217,7.258
			c3.574,0.646,7.03-1.309,7.722-4.915c0.692-3.607-1.642-7.056-5.215-7.703S71.688,245.087,70.995,248.695z"/>
		<path fill-rule="evenodd" clip-rule="evenodd" fill="#F5C084" d="M46.061,248.695c0.692,3.606-1.642,6.61-5.216,7.258
			c-3.574,0.646-7.031-1.309-7.723-4.915c-0.692-3.607,1.642-7.056,5.216-7.703C41.911,242.688,45.368,245.087,46.061,248.695z"/>
		<path fill-rule="evenodd" clip-rule="evenodd" fill="#F8CA97" d="M76.361,225.804c-3.489-4.74-8.931-7.853-14.707-8.082
			c-0.002,0-0.114-0.005-0.3-0.013l0.007-0.226c0,0-1.4,0.056-2.847,0.113c-1.446-0.058-2.847-0.113-2.847-0.113l0.006,0.226
			c-0.186,0.008-0.299,0.013-0.299,0.013c-5.777,0.229-11.219,3.342-14.707,8.082c-3.493,4.745-3.957,10.721-3.682,16.443
			c0.708,14.704,2.022,31.173,21.59,31.336c19.627,0.164,20.759-16.736,21.466-31.336C80.316,236.524,79.854,230.549,76.361,225.804
			z"/>
		<path fill-rule="evenodd" clip-rule="evenodd" fill="#D6825C" d="M64.265,261.261c-1.022,5.749-10.288,5.749-11.311,0
			C55.718,261.896,60.886,261.899,64.265,261.261z"/>
		<path fill-rule="evenodd" clip-rule="evenodd" fill="#59351B" d="M38.064,246.697c0.26-5.419,0.329-15.222,5.074-15.222
			c3.515,0,4.47,0.81,15.145,0.81c9.448,0,12.194-1.078,15.729-1.078c3.789,0,4.729,5.106,4.802,12.188
			c0.014,1.459,0.115,2.919,0.198,4.375c0.05,0.854,0.111,1.708,0.154,2.562c0.017,0.348,0.107,1.276,0.557,1.188
			c0.504-0.097,0.562-1.976,0.612-2.376c0.361-2.826,0.457-5.723,0.455-8.564c-0.005-5.25,1.508-15.357-7.912-21.655
			c-5.792-3.874-17.769-4.259-24.435-2.066c-4.644,1.528-9.095,5.509-10.751,10.145c-1.816,5.092-1.77,9.069-1.171,19.153
			c0.064,1.094,0.19,2.189,0.343,3.273c0.099,0.721,0.191,1.461,0.365,2.167c0.38,1.542,0.907,0.441,0.891-0.518
			C38.097,249.614,37.995,248.163,38.064,246.697z"/>
		<path fill-rule="evenodd" clip-rule="evenodd" fill="#402515" d="M49.539,261.521c-0.862,0.153-1.652,0.26-2.48,0.26
			c-2.924,0-5.401-1.122-7.04-3.076c-0.566-0.677-0.978-1.968-1.078-2.762c-0.094-0.746-0.498-2.615-0.562-3.254
			c-0.364-3.682-1.145-1.026-1.183,1.819c-0.009,0.654,0.18,1.365,0.339,2.077c-0.127,1.249-0.432,4.456-0.349,5.539
			c0.827,10.769,14.686,13.596,21.495,14.595c3.325-0.488,12.523-2.708,14.671-4.193c5.496-3.802,7.271-8.098,6.476-15.94
			c0.159-0.712,0.349-1.423,0.339-2.077c-0.038-2.846-0.818-5.501-1.183-1.819c-0.063,0.639-0.468,2.508-0.562,3.254
			c-0.101,0.794-0.512,2.085-1.078,2.762c-1.639,1.954-4.115,3.076-7.039,3.076c-0.829,0-1.619-0.107-2.481-0.26
			c0.376,0.648,0.581,1.348,0.581,2.077c0,2.735-2.881,5.049-6.847,5.816c-0.25-0.085-0.508-0.211-0.781-0.392
			c-0.965-0.637-1.646-1.506-1.991-2.012c-0.345,0.506-1.025,1.375-1.99,2.012c-0.301,0.198-0.585,0.332-0.857,0.416
			c-4.034-0.741-6.979-3.075-6.979-5.841C48.959,262.868,49.164,262.169,49.539,261.521z"/>
		<path fill-rule="evenodd" clip-rule="evenodd" fill="#5D341B" d="M58.682,256.987c-2.214-1.799-7.55,2.709-8.685,3.194
			c-3.375,1.442-5.453-1.442-5.453-1.442s0.433,2.048,2.049,3.866c2.89,3.251,8.987,2.383,12.089-0.404
			c3.103,2.787,9.199,3.655,12.089,0.404c1.616-1.818,2.049-3.866,2.049-3.866s-2.077,2.885-5.453,1.442
			C66.231,259.696,60.896,255.188,58.682,256.987z"/>
		<g>
			<path fill-rule="evenodd" clip-rule="evenodd" fill="#3E3C3B" d="M47.399,253.464c0.922,0,1.674-0.752,1.674-1.674
				s-0.752-1.673-1.674-1.673c-0.921,0-1.673,0.751-1.673,1.673S46.479,253.464,47.399,253.464z"/>
			<circle fill-rule="evenodd" clip-rule="evenodd" fill="#3E3C3B" cx="69.629" cy="251.791" r="1.673"/>
		</g>
		<g>
			<path fill-rule="evenodd" clip-rule="evenodd" fill="#59351B" d="M42.075,246.687c-0.556-0.918,2.337-1.401,5.277-1.426
				c4.931-0.042,7.606,2.326,5.235,2.261C50.816,247.472,42.238,246.956,42.075,246.687z"/>
			<path fill-rule="evenodd" clip-rule="evenodd" fill="#59351B" d="M74.957,246.554c0.544-0.925-2.354-1.37-5.295-1.356
				c-4.931,0.022-7.575,2.425-5.205,2.328C66.228,247.453,74.798,246.825,74.957,246.554z"/>
		</g>
		<path fill-rule="evenodd" clip-rule="evenodd" fill="#E5B27E" d="M56.352,255.917c-0.017-0.005-0.02-0.019-0.005-0.042
			c0-0.07,0.039-0.138,0.112-0.201c0.569-1.095,1.688-4.287,2.199-7.798c0.562,0.034-0.557,5.976-1.038,7.394
			c0.487-0.084,1.081-0.134,1.722-0.134c1.653,0,2.994,0.331,2.994,0.739c0,0.409-1.341,0.74-2.994,0.74
			C57.744,256.615,56.439,256.306,56.352,255.917z"/>
	</g>
	<g>
		<path fill-rule="evenodd" clip-rule="evenodd" fill="#3E3C3B" d="M123.112,290.939c5.3,0,9.624-6.255,9.624-13.923
			c0-7.67-4.324-13.925-9.624-13.925c-5.302,0-9.625,6.255-9.625,13.925C113.487,284.685,117.81,290.939,123.112,290.939z"/>
		<path fill-rule="evenodd" clip-rule="evenodd" fill="#4A7E73" d="M130.459,289.354c0.387-0.29,8.788-6.636,8.788-6.636
			c3.85,1.271,4.961,12.188,5.352,17.281h-9.198L130.459,289.354z"/>
		<path fill-rule="evenodd" clip-rule="evenodd" fill="#F4B67E" d="M122.575,275.517h-4.059v2.564
			c0.002,1.345-6.131,3.086-7.404,3.492c-3.809,6.63,7.278,10.478,10.804,15.717h1.048h1.047
			c3.525-5.239,13.453-8.798,10.249-15.717c-1.272-0.406-7.626-2.147-7.624-3.492v-2.564H122.575z"/>
		<path fill-rule="evenodd" clip-rule="evenodd" fill="#4A7E73" d="M114.011,290.172c-0.388-0.29-7.886-7.453-7.886-7.453
			c-3.85,1.271-4.96,12.188-5.352,17.281h9.198L114.011,290.172z"/>
		<path fill-rule="evenodd" clip-rule="evenodd" fill="#458B7C" d="M111.112,281.573c-1.232,0.24-2.443,0.474-3.407,0.696
			l-0.046,0.012l-0.046,0.011l-0.045,0.01l-0.044,0.011l-0.045,0.012l-0.044,0.01l-0.086,0.021l-0.042,0.011l-0.043,0.011
			l-0.042,0.01h-0.002l-0.04,0.011l-0.041,0.011l-0.04,0.01l-0.041,0.012l-0.039,0.01l-0.04,0.01l-0.105,0.029l-0.01,0.002
			l-0.038,0.011l-0.037,0.01l-0.036,0.011l-0.036,0.01l-0.036,0.011l-0.034,0.01l-0.029,0.01l-0.006,0.001l-0.033,0.011l-0.033,0.01
			l-0.032,0.01h-0.001l-0.032,0.011l-0.062,0.02l-0.023,0.008l-0.008,0.003l-0.088,0.03l-0.015,0.005l-0.013,0.005l-0.055,0.02
			l-0.026,0.01l-0.024,0.009l-0.067,0.028l-0.021,0.008c-0.025,0.011-0.049,0.021-0.073,0.032l-0.003,0.001L106,282.773
			c-0.025,0.012-0.048,0.022-0.07,0.034l-0.004,0.003c-0.021,0.01-0.04,0.02-0.058,0.031l-0.007,0.004l-0.003,0.002
			c-0.018,0.011-0.035,0.021-0.05,0.031l-0.003,0.002l-0.001,0.002c-0.016,0.012-0.031,0.023-0.044,0.035
			c0.388,0.849,0.905,3.749,1.446,7.331c-0.547,3.654-2.688,6.279-1.148,9.751h2.516h14.004h0.112h0.109H136.8h2.517
			c1.54-3.472-0.601-6.097-1.149-9.751c0.542-3.582,1.058-6.482,1.447-7.331c-0.014-0.013-0.028-0.022-0.046-0.035l0-0.002
			l-0.003-0.002c-0.015-0.01-0.031-0.021-0.05-0.031l-0.003-0.002l-0.008-0.004c-0.018-0.012-0.036-0.021-0.057-0.031l-0.004-0.003
			c-0.021-0.012-0.046-0.022-0.071-0.034l-0.002-0.002l-0.003-0.001l-0.072-0.032l-0.021-0.008l-0.067-0.028l-0.023-0.009
			l-0.027-0.01l-0.054-0.02l-0.013-0.005l-0.015-0.005l-0.088-0.03l-0.008-0.003l-0.023-0.008l-0.062-0.02l-0.033-0.011h-0.001
			l-0.032-0.01l-0.033-0.01l-0.033-0.011l-0.006-0.001l-0.029-0.01l-0.035-0.01l-0.036-0.011l-0.035-0.01l-0.036-0.011l-0.037-0.01
			l-0.038-0.011l-0.008-0.002l-0.106-0.029l-0.039-0.01l-0.04-0.01l-0.041-0.012l-0.04-0.01l-0.042-0.011l-0.039-0.011h-0.002
			l-0.042-0.01l-0.043-0.011l-0.042-0.011l-0.087-0.021l-0.043-0.01l-0.046-0.012l-0.044-0.011l-0.045-0.01l-0.045-0.011
			l-0.046-0.012c-0.964-0.223-2.174-0.456-3.408-0.696c0.121,0.496,0.185,1.008,0.185,1.53c0,4.757-5.264,8.613-11.757,8.613
			c-6.495,0-11.76-3.856-11.76-8.613C110.927,282.581,110.991,282.068,111.112,281.573z"/>
		<g>
			<path fill-rule="evenodd" clip-rule="evenodd" fill="#F5C084" d="M110.644,256.539c0.673,3.023-0.664,5.543-2.955,6.087
				c-2.29,0.541-4.663-1.098-5.336-4.123c-0.673-3.023,0.637-5.916,2.928-6.458C107.571,251.502,109.972,253.513,110.644,256.539z"
				/>
			<path fill-rule="evenodd" clip-rule="evenodd" fill="#F5C084" d="M135.401,256.539c-0.674,3.023,0.665,5.543,2.955,6.087
				c2.29,0.541,4.664-1.098,5.336-4.123c0.672-3.023-0.637-5.916-2.927-6.458C138.475,251.502,136.074,253.513,135.401,256.539z"/>
		</g>
		<path fill-rule="evenodd" clip-rule="evenodd" fill="#F8CA97" d="M123.022,230.896l-0.052,0.003
			c-1.213-0.05-2.387-0.096-2.387-0.096l0.004,0.189c-0.155,0.007-0.25,0.01-0.25,0.01c-4.846,0.194-9.408,2.804-12.334,6.778
			c-2.928,3.979-3.317,8.99-3.087,13.789c0.594,12.331,7.5,26.176,18.105,26.278c10.604-0.103,17.512-13.947,18.105-26.278
			c0.23-4.799-0.158-9.81-3.086-13.789c-2.926-3.975-7.488-6.584-12.333-6.778c0,0-0.095-0.003-0.25-0.01l0.005-0.189
			c0,0-1.175,0.046-2.388,0.096L123.022,230.896z"/>
		<path fill-rule="evenodd" clip-rule="evenodd" fill="#3E3C3B" d="M130.56,235.673c-0.146,0.678-0.017,4.308,4.161,9.872
			c4.177,5.564,4.5,6.05,4.5,6.05s-0.009,9.65,0.547,8.465c0.556-1.187,1.65-8.467,1.669-8.908c0.019-0.441,0.784-4.687-0.281-9.042
			c-1.064-4.355-2.407-5.997-4.253-6.731C135.057,234.644,130.56,235.673,130.56,235.673z"/>
		<path fill-rule="evenodd" clip-rule="evenodd" fill="#3E3C3B" d="M107.283,247.433c-0.726,0.822-3.068,2.787-3.068,2.787
			c0.695,3.309,1.294,9.422,2.085,9.925C106.634,259.246,106.945,253.211,107.283,247.433z"/>
		<path fill-rule="evenodd" clip-rule="evenodd" fill="#3E3C3B" d="M139.221,251.595c0.19-3.181,1.821-10.439,1.022-12.421
			c-2.305-5.714-6.528-8.027-13.616-8.735c-2.178-0.219-3.993-0.024-3.993-0.024C126.701,237.126,130.135,246.045,139.221,251.595z"
			/>
		<path fill-rule="evenodd" clip-rule="evenodd" fill="#3E3C3B" d="M132.385,237.401c-1.437,8.966-20.353,6.076-26.577,16.859
			c-6.934-10.486,3.685-31.965,22.167-23.663L132.385,237.401z"/>
		<g>
			<circle fill-rule="evenodd" clip-rule="evenodd" fill="#3E3C3B" cx="113.853" cy="257.467" r="1.403"/>
			<circle fill-rule="evenodd" clip-rule="evenodd" fill="#3E3C3B" cx="132.192" cy="257.467" r="1.403"/>
		</g>
		<path fill-rule="evenodd" clip-rule="evenodd" fill="#E5B27E" d="M120.123,264.577c-0.016-0.006-0.019-0.021-0.005-0.043
			c0-0.071,0.04-0.141,0.115-0.205c0.576-1.11,1.71-4.346,2.229-7.906c0.57,0.036-0.563,6.059-1.053,7.497
			c0.494-0.086,1.095-0.136,1.745-0.136c1.677,0,3.037,0.335,3.037,0.75c0,0.414-1.359,0.749-3.037,0.749
			C121.536,265.283,120.212,264.971,120.123,264.577z"/>
		<path fill-rule="evenodd" clip-rule="evenodd" fill="#3E3C3B" d="M127.133,252.165c-0.831,0.344,0.55-1.908,4.637-1.997
			c4.764-0.104,6.212,2.187,4.335,1.528C132.057,250.277,128.452,251.618,127.133,252.165z"/>
		<path fill-rule="evenodd" clip-rule="evenodd" fill="#3E3C3B" d="M118.91,252.165c0.831,0.344-0.551-1.908-4.637-1.997
			c-4.763-0.104-6.212,2.187-4.335,1.528C113.986,250.277,117.591,251.618,118.91,252.165z"/>
		<path fill-rule="evenodd" clip-rule="evenodd" fill="#5B5959" d="M135.83,253.104c1.993,0.21,2.728,1.093,2.626,3.141
			c-0.201,4.104-1.541,6.336-5.691,6.925c-3.865,0.549-6.149-1.12-6.899-5.211c-0.247-1.357-0.15-2.953,1.159-3.727
			C129.148,252.98,133.306,252.84,135.83,253.104L135.83,253.104z M110.255,253.104L110.255,253.104
			c-1.994,0.21-2.727,1.093-2.626,3.141c0.201,4.104,1.541,6.336,5.69,6.925c3.865,0.549,6.149-1.12,6.898-5.211
			c0.248-1.357,0.151-2.953-1.158-3.727C116.938,252.98,112.78,252.84,110.255,253.104L110.255,253.104z M121.383,254.59
			L121.383,254.59c-0.23-0.036-0.414-0.119-0.534-0.351c-0.221-0.427-0.569-0.729-0.989-0.971c-1.866-1.07-7.304-1.224-9.427-1.224
			c0,0-1.911,0.031-2.834,0.072c-0.756,0.032-1.368,0.116-2.092,0.271c-0.144,0.086-0.19,0.241-0.185,0.425
			c0.019,0.634,0.042,1.268,0.118,1.897c0.014,0.11,0.059,0.204,0.163,0.259c0.435,0.219,0.621,0.596,0.71,1.058
			c0.363,1.88,0.872,3.8,1.953,5.41c0.549,0.816,1.311,1.361,2.206,1.747c2.349,1.008,5.884,1.195,8.03-0.493
			c1.051-0.826,1.884-2.675,2.291-3.904c0.232-0.704,0.448-1.412,0.602-2.137c0.032-0.155,0.054-0.313,0.071-0.471
			c0.023-0.223,0.102-0.307,0.333-0.294c1.079,0.062,1.411,0.062,2.49,0c0.231-0.013,0.309,0.071,0.333,0.294
			c0.016,0.157,0.037,0.315,0.07,0.471c0.154,0.725,0.369,1.433,0.601,2.137c0.408,1.229,1.24,3.078,2.292,3.904
			c2.145,1.688,5.681,1.501,8.03,0.493c0.895-0.386,1.656-0.931,2.205-1.747c1.081-1.61,1.59-3.53,1.953-5.41
			c0.089-0.462,0.276-0.839,0.71-1.058c0.104-0.055,0.15-0.148,0.164-0.259c0.076-0.63,0.099-1.264,0.119-1.897
			c0.006-0.184-0.042-0.339-0.186-0.425c-0.724-0.155-1.336-0.239-2.092-0.271c-0.923-0.041-2.833-0.072-2.833-0.072
			c-2.124,0-7.562,0.153-9.427,1.224c-0.42,0.241-0.768,0.544-0.99,0.971c-0.12,0.231-0.303,0.314-0.533,0.351
			C123.601,254.769,122.485,254.769,121.383,254.59z"/>
		<path fill-rule="evenodd" clip-rule="evenodd" fill="#D6825C" d="M129.018,267.783c-1.289,1.648-3.655,2.754-6.364,2.754
			c-2.707,0-5.075-1.105-6.364-2.753c1.571,1.134,3.768,2.282,6.292,2.282C125.106,270.066,127.448,268.918,129.018,267.783z"/>
	</g>
</g>
<g id="Layer_2" display="none">
	<path display="inline" fill-rule="evenodd" clip-rule="evenodd" fill="#FFFFFF" stroke="#000000" stroke-miterlimit="10" d="
		M165.004,165.757c28.127-10.734,47.144-31.239,47.144-54.774c0-34.648-41.207-62.736-92.039-62.736S28.07,76.335,28.07,110.983
		s41.207,62.736,92.039,62.736c0,0,19.998,32.396,51.891,36.465C172,210.184,139.938,174.517,165.004,165.757z"/>
	<text transform="matrix(1 0 0 1 57.1152 87.0005)" display="inline"><tspan x="0" y="0" font-family="'Roboto-Regular'" font-size="9.8521">My friends can never decide</tspan><tspan x="-10.747" y="11.823" font-family="'Roboto-Regular'" font-size="9.8521">where to go when we want to eat</tspan><tspan x="-17.758" y="23.645" font-family="'Roboto-Regular'" font-size="9.8521">out. They always say  “Its up to you”</tspan><tspan x="-15.211" y="35.468" font-family="'Roboto-Regular'" font-size="9.8521">and  “I don’t care”. I wish there was</tspan><tspan x="-12.428" y="47.29" font-family="'Roboto-Regular'" font-size="9.8521">a better way to make the decision</tspan></text>
</g>
<g id="Layer_3">
	<g id="Hamburger">
		<polygon fill="#458B7C" points="114.615,191.469 126.39,226.993 137.587,193.79 		"/>
		<circle fill="#458B7C" cx="133.018" cy="184.5" r="32.643"/>
		<g>
			<path fill="#B95233" d="M154.668,189.389h-43.265c-0.992,0-1.803-0.811-1.803-1.802l0,0c0-0.992,0.811-1.804,1.803-1.804h43.265
				c0.992,0,1.803,0.812,1.803,1.804l0,0C156.471,188.578,155.66,189.389,154.668,189.389z"/>
			<path fill="#B95233" d="M153.766,182.179h-43.264c-0.991,0-1.802-0.812-1.802-1.804l0,0c0-0.991,0.812-1.803,1.802-1.803h43.264
				c0.992,0,1.804,0.812,1.804,1.803l0,0C155.569,181.367,154.758,182.179,153.766,182.179z"/>
			<path fill="#6A3515" d="M156.471,185.783h-44.166c-0.992,0-1.803-0.811-1.803-1.803l0,0c0-0.991,0.812-1.802,1.803-1.802h44.166
				c0.991,0,1.803,0.811,1.803,1.802l0,0C158.273,184.973,157.462,185.783,156.471,185.783z"/>
			<path fill="#88C057" d="M113.606,174.704v3.303v0.002c0,1.369,1.11,2.479,2.479,2.479c1.152,0,2.12-0.786,2.398-1.851
				c0.023-0.088,0.138-0.088,0.161,0c0.278,1.064,1.246,1.851,2.398,1.851c1.152,0,2.12-0.786,2.398-1.851
				c0.023-0.088,0.138-0.088,0.16,0c0.278,1.064,1.247,1.851,2.398,1.851s2.12-0.786,2.399-1.851c0.023-0.088,0.138-0.088,0.16,0
				c0.279,1.064,1.247,1.851,2.398,1.851s2.12-0.786,2.398-1.851c0.023-0.088,0.138-0.088,0.161,0
				c0.279,1.064,1.247,1.851,2.398,1.851c1.152,0,2.12-0.786,2.399-1.851c0.023-0.088,0.138-0.088,0.161,0
				c0.278,1.064,1.247,1.851,2.398,1.851s2.12-0.786,2.398-1.851c0.023-0.088,0.138-0.088,0.16,0
				c0.279,1.064,1.247,1.851,2.399,1.851s2.12-0.786,2.398-1.851c0.023-0.088,0.138-0.088,0.16,0
				c0.278,1.064,1.247,1.851,2.399,1.851c1.369,0,2.479-1.109,2.479-2.479v-0.002v-3.303H113.606z"/>
			<path fill="#659C41" d="M152.865,192.994v-3.303v-0.001c0-1.369-1.109-2.479-2.479-2.479c-1.152,0-2.12,0.785-2.398,1.85
				c-0.024,0.089-0.138,0.089-0.161,0c-0.279-1.064-1.247-1.85-2.398-1.85s-2.12,0.785-2.398,1.85c-0.024,0.089-0.138,0.089-0.161,0
				c-0.278-1.064-1.247-1.85-2.398-1.85s-2.12,0.785-2.398,1.85c-0.023,0.089-0.138,0.089-0.16,0
				c-0.279-1.064-1.247-1.85-2.399-1.85c-1.152,0-2.12,0.785-2.398,1.85c-0.023,0.089-0.138,0.089-0.16,0
				c-0.279-1.064-1.247-1.85-2.399-1.85c-1.152,0-2.12,0.785-2.398,1.85c-0.024,0.089-0.138,0.089-0.161,0
				c-0.278-1.064-1.247-1.85-2.398-1.85s-2.12,0.785-2.398,1.85c-0.023,0.089-0.138,0.089-0.161,0
				c-0.278-1.064-1.246-1.85-2.398-1.85c-1.152,0-2.12,0.785-2.398,1.85c-0.023,0.089-0.138,0.089-0.161,0
				c-0.278-1.064-1.246-1.85-2.398-1.85c-1.369,0-2.479,1.109-2.479,2.479v0.001v3.303H152.865L152.865,192.994z"/>
			<path fill="#D9A04C" d="M133.436,165.691h9.915c7.424,0,10.765,5.403,12.005,8.232c0.643,1.468-0.215,3.239-1.803,3.461
				c-0.111,0.016-0.218,0.023-0.316,0.023h-19.8h-19.799c-0.099,0-0.206-0.008-0.317-0.023c-1.588-0.222-2.446-1.993-1.802-3.461
				c1.239-2.829,4.58-8.232,12.004-8.232H133.436z"/>
			<path fill="#EFDFA1" d="M142.448,174.704c-0.171,0-0.345-0.049-0.5-0.151l-2.704-1.803c-0.414-0.276-0.525-0.835-0.25-1.25
				c0.276-0.414,0.835-0.525,1.25-0.249l2.704,1.803c0.414,0.276,0.525,0.835,0.25,1.249
				C143.025,174.563,142.74,174.704,142.448,174.704z"/>
			<path fill="#EFDFA1" d="M129.83,171.099c-0.135,0-0.273-0.03-0.402-0.095c-0.445-0.223-0.625-0.764-0.402-1.209l0.901-1.803
				c0.223-0.446,0.763-0.626,1.209-0.403c0.446,0.223,0.626,0.765,0.403,1.21l-0.901,1.802
				C130.479,170.916,130.16,171.099,129.83,171.099z"/>
			<path fill="#EFDFA1" d="M119.915,173.803c-0.135,0-0.273-0.03-0.402-0.094c-0.445-0.223-0.625-0.766-0.402-1.21l0.901-1.803
				c0.223-0.444,0.764-0.624,1.209-0.403c0.445,0.224,0.625,0.764,0.403,1.21l-0.902,1.803
				C120.563,173.621,120.246,173.803,119.915,173.803z"/>
			<path fill="#D9A04C" d="M152.865,190.29h-3.575h-3.605h-12.619h-19.799c-0.991,0-1.803,0.812-1.803,1.803
				c0,0,1.632,9.915,11.687,9.915h9.915h9.915c10.056,0,11.687-9.915,11.687-9.915C154.668,191.102,153.856,190.29,152.865,190.29z"
				/>
			<path fill="#EFDFA1" d="M122.249,196.6c-0.171,0-0.345-0.05-0.499-0.151l-2.704-1.803c-0.414-0.276-0.525-0.835-0.25-1.25
				c0.276-0.414,0.835-0.526,1.25-0.25l2.704,1.803c0.414,0.277,0.525,0.836,0.25,1.251C122.826,196.459,122.54,196.6,122.249,196.6
				z"/>
			<path fill="#EFDFA1" d="M132.166,198.403c-0.331,0-0.649-0.184-0.808-0.499l-0.901-1.804c-0.223-0.444-0.042-0.985,0.403-1.208
				c0.446-0.223,0.987-0.043,1.209,0.402l0.901,1.803c0.223,0.444,0.042,0.986-0.403,1.21
				C132.439,198.372,132.301,198.403,132.166,198.403z"/>
			<path fill="#EFDFA1" d="M138.474,196.599c-0.135,0-0.273-0.031-0.402-0.095c-0.445-0.223-0.625-0.765-0.403-1.209l0.902-1.803
				c0.222-0.444,0.762-0.624,1.209-0.403c0.445,0.223,0.625,0.765,0.402,1.21l-0.901,1.802
				C139.122,196.417,138.804,196.599,138.474,196.599z"/>
		</g>
	</g>
	<g id="Ramen">
		<polygon fill="#9756A2" points="155.57,144.172 186.088,174.976 182.436,145.286 		"/>
		<circle fill="#9756A2" cx="165.661" cy="92.994" r="58.862"/>
		<g>
			<ellipse fill="#F4F4F4" cx="165.07" cy="129.573" rx="21.707" ry="4.342"/>
			<ellipse fill="#D8D9D8" cx="157.834" cy="129.573" rx="14.472" ry="2.894"/>
			<path fill="#E6E6E5" d="M189.867,97.444c0-4.45-14.946-8.058-33.383-8.058c-18.437,0-33.382,3.606-33.382,8.058
				c0,0.065,0,0.195,0,0.195c0,18.437,14.946,33.382,33.384,33.382c18.436,0,33.383-14.946,33.383-33.382
				C189.867,97.637,189.867,97.509,189.867,97.444z"/>
			
				<rect x="140.327" y="61.889" transform="matrix(-0.9953 -0.0971 0.0971 -0.9953 333.3174 142.8928)" fill="#A5703E" width="59.618" height="2.894"/>
			<path fill="#EEB04B" d="M145.334,84.71c-1.271-1.053-1.971-2.476-1.971-4.009c0-1.532,0.699-2.955,1.971-4.008
				c0.596-0.495,0.923-1.126,0.923-1.78c0-0.654-0.328-1.287-0.923-1.78c-1.271-1.054-1.971-2.476-1.971-4.009
				s0.699-2.955,1.971-4.009c0.596-0.495,0.923-1.126,0.923-1.78c0-0.654-0.328-1.287-0.923-1.78
				c-1.271-1.054-1.971-2.476-1.971-4.009c0-1.532,0.699-2.955,1.971-4.009l1.847,2.229c-0.597,0.495-0.924,1.126-0.924,1.78
				s0.329,1.287,0.924,1.78c1.271,1.053,1.971,2.477,1.971,4.009s-0.699,2.955-1.971,4.009c-0.597,0.495-0.924,1.125-0.924,1.78
				c0,0.654,0.329,1.286,0.924,1.78c1.271,1.053,1.971,2.476,1.971,4.009c0,1.532-0.699,2.955-1.971,4.008
				c-0.597,0.496-0.924,1.126-0.924,1.78c0,0.654,0.329,1.287,0.924,1.78L145.334,84.71z"/>
			<path fill="#EEB04B" d="M151.122,84.71c-1.27-1.053-1.971-2.476-1.971-4.009c0-1.532,0.699-2.955,1.971-4.008
				c0.597-0.495,0.923-1.126,0.923-1.78c0-0.654-0.328-1.287-0.923-1.78c-1.27-1.054-1.971-2.476-1.971-4.009
				s0.699-2.955,1.971-4.009c0.597-0.495,0.923-1.126,0.923-1.78c0-0.654-0.328-1.287-0.923-1.78
				c-1.27-1.054-1.971-2.476-1.971-4.009c0-1.532,0.699-2.955,1.971-4.009l1.847,2.229c-0.596,0.495-0.924,1.126-0.924,1.78
				s0.329,1.287,0.924,1.78c1.271,1.053,1.971,2.477,1.971,4.009s-0.698,2.955-1.971,4.009c-0.596,0.495-0.924,1.125-0.924,1.78
				c0,0.654,0.329,1.286,0.924,1.78c1.271,1.053,1.971,2.476,1.971,4.009c0,1.532-0.698,2.955-1.971,4.008
				c-0.596,0.496-0.924,1.126-0.924,1.78c0,0.654,0.329,1.287,0.924,1.78L151.122,84.71z"/>
			<path fill="#EEB04B" d="M156.911,84.71c-1.271-1.053-1.972-2.476-1.972-4.009c0-1.532,0.699-2.955,1.972-4.008
				c0.597-0.495,0.923-1.126,0.923-1.78c0-0.654-0.328-1.287-0.923-1.78c-1.271-1.054-1.972-2.476-1.972-4.009
				s0.699-2.955,1.972-4.009c0.597-0.495,0.923-1.126,0.923-1.78c0-0.654-0.328-1.287-0.923-1.78
				c-1.271-1.054-1.972-2.476-1.972-4.009c0-1.532,0.699-2.955,1.972-4.009l1.846,2.229c-0.595,0.495-0.923,1.126-0.923,1.78
				s0.328,1.287,0.923,1.78c1.271,1.053,1.972,2.477,1.972,4.009s-0.698,2.955-1.972,4.009c-0.595,0.495-0.923,1.125-0.923,1.78
				c0,0.654,0.328,1.286,0.923,1.78c1.271,1.053,1.972,2.476,1.972,4.009c0,1.532-0.698,2.955-1.972,4.008
				c-0.595,0.496-0.923,1.126-0.923,1.78c0,0.654,0.328,1.287,0.923,1.78L156.911,84.71z"/>
			<path fill="#EEB04B" d="M162.699,84.71c-1.271-1.053-1.971-2.476-1.971-4.009c0-1.532,0.699-2.955,1.971-4.008
				c0.598-0.495,0.924-1.126,0.924-1.78c0-0.654-0.328-1.287-0.924-1.78c-1.271-1.054-1.971-2.476-1.971-4.009
				s0.699-2.955,1.971-4.009c0.598-0.495,0.924-1.126,0.924-1.78c0-0.654-0.328-1.287-0.924-1.78
				c-1.271-1.054-1.971-2.476-1.971-4.009c0-1.532,0.699-2.955,1.971-4.009l1.847,2.229c-0.596,0.495-0.923,1.126-0.923,1.78
				s0.328,1.287,0.923,1.78c1.271,1.053,1.971,2.477,1.971,4.009s-0.698,2.955-1.971,4.009c-0.596,0.495-0.923,1.125-0.923,1.78
				c0,0.654,0.328,1.286,0.923,1.78c1.271,1.053,1.971,2.476,1.971,4.009c0,1.532-0.698,2.955-1.971,4.008
				c-0.596,0.496-0.923,1.126-0.923,1.78c0,0.654,0.328,1.287,0.923,1.78L162.699,84.71z"/>
			<ellipse fill="#FBD490" cx="156.484" cy="97.442" rx="33.383" ry="8.058"/>
			<path fill="#EEB04B" d="M169.744,103c-0.988-1.193-2.573-1.193-3.562,0l-2.227-1.848c1.054-1.27,2.476-1.969,4.008-1.969
				c1.533,0,2.955,0.699,4.01,1.969L169.744,103z"/>
			<path fill="#EEB04B" d="M178.427,101.554c-0.987-1.192-2.572-1.192-3.561,0l-2.229-1.849c1.055-1.27,2.478-1.97,4.01-1.97
				s2.955,0.7,4.009,1.97L178.427,101.554z"/>
			<path fill="#EEB04B" d="M184.216,98.659c-0.988-1.192-2.572-1.192-3.562,0l-2.228-1.848c1.055-1.271,2.477-1.97,4.009-1.97
				c1.533,0,2.955,0.699,4.01,1.97L184.216,98.659z"/>
			<path fill="#EEB04B" d="M175.532,97.212c-0.987-1.192-2.572-1.192-3.561,0l-2.228-1.848c1.054-1.271,2.477-1.97,4.009-1.97
				c1.533,0,2.955,0.699,4.009,1.97L175.532,97.212z"/>
			<path fill="#EEB04B" d="M166.851,98.659c-0.989-1.192-2.573-1.192-3.562,0l-2.227-1.848c1.054-1.271,2.476-1.97,4.009-1.97
				s2.954,0.699,4.009,1.97L166.851,98.659z"/>
			<path fill="#EEB04B" d="M166.851,94.317c-0.989-1.192-2.573-1.192-3.562,0l-2.227-1.848c1.054-1.27,2.476-1.969,4.009-1.969
				s2.954,0.699,4.009,1.969L166.851,94.317z"/>
			<path fill="#EEB04B" d="M158.167,97.212c-0.988-1.192-2.573-1.192-3.562,0l-2.227-1.848c1.053-1.271,2.476-1.97,4.009-1.97
				c1.532,0,2.954,0.699,4.008,1.97L158.167,97.212z"/>
			<path fill="#EEB04B" d="M159.614,103c-0.988-1.193-2.573-1.193-3.561,0l-2.228-1.848c1.053-1.27,2.476-1.969,4.008-1.969
				s2.956,0.699,4.009,1.969L159.614,103z"/>
			<path fill="#EEB04B" d="M150.932,103c-0.989-1.193-2.573-1.193-3.562,0l-2.227-1.848c1.054-1.27,2.477-1.969,4.009-1.969
				c1.533,0,2.955,0.699,4.009,1.969L150.932,103z"/>
			<path fill="#EEB04B" d="M133.565,101.554c-0.988-1.192-2.573-1.192-3.562,0l-2.227-1.849c1.053-1.27,2.476-1.97,4.009-1.97
				c1.532,0,2.955,0.7,4.008,1.97L133.565,101.554z"/>
			<path fill="#EEB04B" d="M143.695,101.554c-0.988-1.192-2.573-1.192-3.562,0l-2.227-1.849c1.054-1.27,2.477-1.97,4.009-1.97
				c1.533,0,2.955,0.7,4.009,1.97L143.695,101.554z"/>
			<path fill="#EEB04B" d="M148.037,97.212c-0.988-1.192-2.573-1.192-3.562,0l-2.228-1.848c1.054-1.271,2.477-1.97,4.009-1.97
				c1.533,0,2.955,0.699,4.009,1.97L148.037,97.212z"/>
			<path fill="#EEB04B" d="M136.459,97.212c-0.988-1.192-2.573-1.192-3.561,0l-2.228-1.848c1.054-1.271,2.477-1.97,4.009-1.97
				c1.533,0,2.955,0.699,4.009,1.97L136.459,97.212z"/>
			
				<rect x="165.793" y="24.685" transform="matrix(-0.138 -0.9904 0.9904 -0.138 134.755 229.4816)" fill="#AF8059" width="2.894" height="62.831"/>
			<path fill="#EDEDED" d="M146.68,125.84c-13.661-2.113-16.353-19.421-16.353-19.421c4.146,2.099,7.66,4.005,8.97,7.169
				c4.667,0.243,7.13,1.746,6.344,6.198c12.573,2.964,12.124,5.268,8.601,7.032C151.998,126.6,146.68,125.84,146.68,125.84z"/>
		</g>
	</g>
	<g id="Sandwich">
		<circle fill="#A02126" cx="73.158" cy="160.978" r="37.644"/>
		<polygon fill="#A02126" points="59.831,174.164 62.329,211.506 81.488,182.167 		"/>
		<g>
			<path fill="#6A3515" d="M97.446,172.037H48.402c-1.533,0-2.787-1.254-2.787-2.786l0,0c0-1.533,1.254-2.787,2.787-2.787h49.044
				c1.533,0,2.786,1.254,2.786,2.787l0,0C100.232,170.783,98.979,172.037,97.446,172.037z"/>
			<path fill="#A94524" d="M97.446,167.579H48.402c-1.533,0-2.787-1.254-2.787-2.786l0,0c0-1.533,1.254-2.786,2.787-2.786h49.044
				c1.533,0,2.786,1.253,2.786,2.786l0,0C100.232,166.325,98.979,167.579,97.446,167.579z"/>
			<path fill="#EE4033" d="M52.86,159.776c-3.065,0-2.657-1.123-2.787-2.229c-2.945,0.56-4.458,2.234-4.458,3.901
				c0,2.155,3.493,3.901,7.802,3.901s7.802-1.746,7.802-3.901c0-0.6-0.278-1.164-0.761-1.672H52.86z"/>
			<path fill="#F8E981" d="M60.438,159.776c0.487,0.508,0.782,1.072,0.782,1.672c0,0.91-0.627,1.745-1.671,2.408
				c1.429,0.908,3.64,1.493,6.13,1.493c4.309,0,7.802-1.746,7.802-3.901c0-0.6-0.278-1.164-0.761-1.672H60.438z"/>
			<rect x="48.959" y="153.089" fill="#D19029" width="46.814" height="6.688"/>
			<polygon fill="#FDE3AA" points="95.773,153.089 48.959,153.089 72.367,129.682 			"/>
			<path fill="#F8E981" d="M95.773,159.263v0.513H85.511c-0.131,0.062-0.252,0.127-0.37,0.193c0.376,0.458,0.6,0.954,0.6,1.479
				c0,0.794-0.477,1.532-1.292,2.147c1.32,1.045,3.899,1.754,6.865,1.754c4.31,0,7.802-1.497,7.802-3.343
				C99.117,160.871,97.793,159.868,95.773,159.263z"/>
			<path fill="#EE4033" d="M72.707,159.776c0.487,0.508,0.774,1.072,0.774,1.672c0,0.733-0.411,1.416-1.114,2.002
				c1.363,1.136,3.844,1.899,6.688,1.899c4.309,0,7.803-1.746,7.803-3.901c0-0.6-0.279-1.164-0.761-1.672H72.707z"/>
			<circle fill="#D19029" cx="83.513" cy="148.63" r="1.115"/>
			<circle fill="#D19029" cx="71.251" cy="138.599" r="1.115"/>
			<circle fill="#D19029" cx="61.22" cy="148.63" r="1.115"/>
			<circle fill="#D19029" cx="75.71" cy="145.287" r="1.115"/>
			<circle fill="#D19029" cx="69.022" cy="146.401" r="1.115"/>
			<rect x="46.979" y="172.037" fill="#FDE3AA" width="51.023" height="7.463"/>
			<circle fill="#D19029" cx="80.169" cy="174.267" r="1.114"/>
			<circle fill="#D19029" cx="89.085" cy="176.496" r="1.115"/>
			<circle fill="#D19029" cx="53.417" cy="176.496" r="1.115"/>
			<circle fill="#D19029" cx="72.367" cy="176.496" r="1.115"/>
			<circle fill="#D19029" cx="62.335" cy="174.267" r="1.114"/>
		</g>
	</g>
</g>
</svg>
